# Blender v2.74 (sub 0) OBJ File: 'panels.blend'
# www.blender.org
mtllib panelRED.mtl
v -6.304091 -0.197284 -1.000000
v -6.304091 -0.197284 1.000000
v -8.304091 -0.197284 1.000000
v -8.304090 -0.197284 -1.000000
v -6.304090 0.197284 -0.999999
v -6.304091 0.197284 1.000001
v -8.304091 0.197284 1.000000
v -8.304090 0.197284 -1.000000
v -6.095972 -0.197284 -1.208119
v -6.095972 -0.197284 1.208119
v -8.512210 -0.197284 -1.208120
v -6.095971 0.197284 -1.208118
v -8.512210 -0.197284 1.208119
v -6.095973 0.197284 1.208120
v -8.512211 0.197284 1.208119
v -8.512210 0.197284 -1.208119
vn 0.000000 -1.000000 0.000000
vn 0.000000 1.000000 0.000000
vn 1.000000 0.000000 0.000000
vn -0.000000 0.000000 1.000000
vn -1.000000 -0.000000 -0.000000
vn 0.000000 0.000000 -1.000000
usemtl panel_center
s off
f 2//1 3//1 4//1
f 8//2 7//2 6//2
f 1//1 2//1 4//1
f 5//2 8//2 6//2
usemtl panel_sides
f 6//2 14//2 12//2
f 5//2 12//2 16//2
f 6//2 7//2 15//2
f 8//2 16//2 15//2
f 12//3 14//3 10//3
f 14//4 15//4 13//4
f 13//5 15//5 16//5
f 9//6 11//6 16//6
f 3//1 13//1 11//1
f 2//1 10//1 13//1
f 4//1 11//1 9//1
f 1//1 9//1 10//1
f 5//2 6//2 12//2
f 8//2 5//2 16//2
f 14//2 6//2 15//2
f 7//2 8//2 15//2
f 9//3 12//3 10//3
f 10//4 14//4 13//4
f 11//5 13//5 16//5
f 12//6 9//6 16//6
f 4//1 3//1 11//1
f 3//1 2//1 13//1
f 1//1 4//1 9//1
f 2//1 1//1 10//1
